<svg xmlns="http://www.w3.org/2000/svg" viewBox="0 0 16 16">
  <rect width="16" height="16" rx="1" stroke="darkgrey" />
  <g>
    <rect width="7" height="1.5" y="2.4" x="1" rx=".4" fill="#fff" />
    <rect width="4" height="1.5" y="2.4" x="9" rx=".4" fill="#fff" />
  </g>
  <g>
    <rect width="5" height="1.5" y="4.8" rx=".4" x="1" fill="#fff" />
    <rect width="4" height="1.5" y="4.8" rx=".4" x="7" fill="#fff" />
  </g>
  <g>
    <rect width="7" height="1.5" y="7.2" rx=".4" x="1" fill="#fff" />
    <rect width="6" height="1.5" y="7.2" rx=".4" x="9" fill="#fff" />
  </g>
  <g>
    <rect width="3" height="1.5" y="9.6" rx=".4" x="1" fill="#fff" />
    <rect width="5.5" height="1.5" y="9.6" rx=".4" x="5" fill="#fff" />
  </g>
  <g>
    <rect width="2" height="1.5" y="12" rx=".4" x="1" fill="#fff" />
    <rect width="3" height="1.5" y="12" rx=".4" x="4" fill="#fff" />
    <rect width="3" height="1.5" y="12" rx=".4" x="8" fill="#fff" />
  </g>
  <rect x="11.5" width="1" y="0.5" height="15" fill="#f00" />
</svg>
